<svg xmlns="http://www.w3.org/2000/svg" xmlns:xlink="http://www.w3.org/1999/xlink" viewBox="1864 6536 1920 1281"><defs><style>.a{clip-path:url(#c);}.b{fill:url(#a);}.c,.d,.e,.f,.g,.k,.m{fill:none;}.c,.d,.e,.f,.g,.k{stroke:#fff;}.c,.e{stroke-width:15px;}.c,.d{opacity:0.574;}.d,.f{stroke-width:12px;}.e,.f{opacity:0.391;}.g{stroke-width:10px;opacity:0.677;}.h,.i,.j{fill:#fff;}.i{opacity:0.667;}.j{opacity:0.92;}.k{stroke-width:8px;opacity:0.785;}.l{stroke:none;}</style><linearGradient id="a" x1="0.142" y1="0.039" x2="1.063" y2="1.075" gradientUnits="objectBoundingBox"><stop offset="0" stop-color="#4095d3"/><stop offset="1" stop-color="#4bc3ef"/></linearGradient><clipPath id="c"><rect x="1864" y="6536" width="1920" height="1281"/></clipPath></defs><g id="b" class="a"><rect class="h" x="1864" y="6536" width="1920" height="1281"/><rect class="b" width="1920" height="1280" transform="translate(1864 6535)"/><g class="c" transform="translate(1426 6164)"><circle class="l" cx="480" cy="480" r="480"/><circle class="m" cx="480" cy="480" r="472.5"/></g><g class="d" transform="translate(3457 6164)"><circle class="l" cx="480" cy="480" r="480"/><circle class="m" cx="480" cy="480" r="474"/></g><g class="e" transform="translate(1195 5918)"><circle class="l" cx="480" cy="480" r="480"/><circle class="m" cx="480" cy="480" r="472.5"/></g><g class="f" transform="translate(3226 5918)"><circle class="l" cx="480" cy="480" r="480"/><circle class="m" cx="480" cy="480" r="474"/></g><g class="g" transform="translate(3498 7466)"><circle class="l" cx="480" cy="480" r="480"/><circle class="m" cx="480" cy="480" r="475"/></g><circle class="h" cx="29" cy="29" r="29" transform="translate(3299 7340)"/><circle class="h" cx="29" cy="29" r="29" transform="translate(2447 6747)"/><circle class="h" cx="14.5" cy="14.5" r="14.5" transform="translate(2447 6849)"/><circle class="h" cx="18.5" cy="18.5" r="18.5" transform="translate(2322 6976)"/><circle class="h" cx="18.5" cy="18.5" r="18.5" transform="translate(1961 6939)"/><circle class="h" cx="28.5" cy="28.5" r="28.5" transform="translate(2183 7079)"/><circle class="h" cx="2" cy="2" r="2" transform="translate(2240 7136)"/><circle class="h" cx="2" cy="2" r="2" transform="translate(2447 7396)"/><circle class="h" cx="2" cy="2" r="2" transform="translate(2266 7128)"/><circle class="h" cx="6" cy="6" r="6" transform="translate(2221 7175)"/><circle class="h" cx="6" cy="6" r="6" transform="translate(2435 7368)"/><circle class="h" cx="6" cy="6" r="6" transform="translate(3322 7460)"/><circle class="h" cx="16.469" cy="16.469" r="16.469" transform="translate(3525.041 7661.852)"/><circle class="h" cx="6" cy="6" r="6" transform="translate(2155 7207)"/><circle class="h" cx="6" cy="6" r="6" transform="translate(3539 7201)"/><circle class="h" cx="3" cy="3" r="3" transform="translate(2167 7306)"/><circle class="h" cx="3" cy="3" r="3" transform="translate(3380 7316)"/><circle class="h" cx="3" cy="3" r="3" transform="translate(3552 7562)"/><circle class="h" cx="3.5" cy="3.5" r="3.5" transform="translate(2540 6710)"/><circle class="h" cx="3.5" cy="3.5" r="3.5" transform="translate(2476 6695)"/><circle class="i" cx="3.5" cy="3.5" r="3.5" transform="translate(2630 6805)"/><circle class="i" cx="3.5" cy="3.5" r="3.5" transform="translate(2019 6917)"/><circle class="i" cx="1.5" cy="1.5" r="1.5" transform="translate(2698 6765)"/><circle class="i" cx="1.5" cy="1.5" r="1.5" transform="translate(3383 7251)"/><circle class="i" cx="9.607" cy="9.607" r="9.607" transform="translate(3549.746 7623.424)"/><circle class="i" cx="4.117" cy="4.117" r="4.117" transform="translate(3536.02 7604.21)"/><circle class="j" cx="13" cy="13" r="13" transform="translate(3349 7283)"/><path class="k" d="M-11271.2-10557.088s156.472,227.457,360.357,282.509,297.851,63.726,369.6,156.4,138.6,232.849,174.616,319.553" transform="translate(14317 16873)"/><path class="k" d="M-11271.2-10557.088s156.472,227.457,360.357,282.509,297.851,63.726,369.6,156.4,138.6,232.849,174.616,319.553" transform="translate(13101 18106)"/></g></svg>