<svg xmlns="http://www.w3.org/2000/svg" xmlns:xlink="http://www.w3.org/1999/xlink" viewBox="15103 -2374 320 568"><defs><style>.a{clip-path:url(#c);}.b{fill:url(#a);}.c,.d,.e,.i{fill:none;}.c,.d,.e{stroke:#fff;}.c,.d{stroke-width:5px;}.c{opacity:0.391;}.d{opacity:0.574;}.e{stroke-width:4px;opacity:0.785;}.f,.g{fill:#fff;}.g{opacity:0.667;}.h{stroke:none;}</style><linearGradient id="a" x1="0.142" y1="0.039" x2="1.063" y2="1.075" gradientUnits="objectBoundingBox"><stop offset="0" stop-color="#4095d3"/><stop offset="1" stop-color="#4bc3ef"/></linearGradient><clipPath id="c"><rect x="15103" y="-2374" width="320" height="568"/></clipPath></defs><g id="b" class="a"><rect class="f" x="15103" y="-2374" width="320" height="568"/><rect class="b" width="322" height="568" transform="translate(15103 -2374)"/><g class="c" transform="translate(14339 -3185)"><circle class="h" cx="480" cy="480" r="480"/><circle class="i" cx="480" cy="480" r="477.5"/></g><g class="d" transform="translate(14350 -3152)"><circle class="h" cx="480" cy="480" r="480"/><circle class="i" cx="480" cy="480" r="477.5"/></g><g class="d" transform="translate(14303 -2023)"><circle class="h" cx="480" cy="480" r="480"/><circle class="i" cx="480" cy="480" r="477.5"/></g><g class="d" transform="translate(15291 -2042)"><circle class="h" cx="480" cy="480" r="480"/><circle class="i" cx="480" cy="480" r="477.5"/></g><g class="d" transform="translate(15348.895 -2459.537)"><ellipse class="h" cx="129.685" cy="129.685" rx="129.685" ry="129.685"/><ellipse class="i" cx="129.685" cy="129.685" rx="127.185" ry="127.185"/></g><g class="c" transform="translate(15286.483 -2526)"><ellipse class="h" cx="129.685" cy="129.685" rx="129.685" ry="129.685"/><ellipse class="i" cx="129.685" cy="129.685" rx="127.185" ry="127.185"/></g><path class="e" d="M-11271.2-10557.088s42.275,61.453,97.361,76.328,80.471,17.217,99.855,42.256,37.447,62.91,47.178,86.335" transform="translate(26509 8138.595)"/><circle class="f" cx="12.528" cy="12.528" r="12.528" transform="translate(15212.32 -2294.17) rotate(45)"/><circle class="f" cx="12.528" cy="12.528" r="12.528" transform="translate(15426.32 -1959.17) rotate(45)"/><circle class="f" cx="0.879" cy="0.879" r="0.879" transform="translate(15212.32 -2258.734) rotate(45)"/><circle class="f" cx="0.879" cy="0.879" r="0.879" transform="translate(15222.889 -2253.139) rotate(45)"/><circle class="f" cx="2.638" cy="2.638" r="2.638" transform="translate(15194.291 -2252.517) rotate(45)"/><circle class="f" cx="2.638" cy="2.638" r="2.638" transform="translate(15408.291 -1917.517) rotate(45)"/><circle class="f" cx="2.638" cy="2.638" r="2.638" transform="translate(15163.829 -2263.086) rotate(45)"/><circle class="f" cx="2.638" cy="2.638" r="2.638" transform="translate(15377.829 -1928.086) rotate(45)"/><circle class="f" cx="1.319" cy="1.319" r="1.319" transform="translate(15136.785 -2228.583) rotate(45)"/><circle class="f" cx="1.319" cy="1.319" r="1.319" transform="translate(15350.785 -1893.583) rotate(45)"/><ellipse class="f" cx="5.599" cy="5.599" rx="5.599" ry="5.599" transform="translate(15174.271 -1860.105) rotate(-45)"/><ellipse class="f" cx="1.02" cy="1.02" rx="1.02" ry="1.02" transform="translate(15156.747 -1890.59) rotate(-45)"/><ellipse class="f" cx="1.02" cy="1.02" rx="1.02" ry="1.02" transform="translate(15181.747 -1824.59) rotate(-45)"/><ellipse class="g" cx="3.266" cy="3.266" rx="3.266" ry="3.266" transform="translate(15170.972 -1875.282) rotate(-45)"/><ellipse class="g" cx="1.4" cy="1.4" rx="1.4" ry="1.4" transform="translate(15163.053 -1876.601) rotate(-45)"/><ellipse class="g" cx="1.4" cy="1.4" rx="1.4" ry="1.4" transform="translate(15188.053 -1810.601) rotate(-45)"/></g></svg>