<svg xmlns="http://www.w3.org/2000/svg" viewBox="3376.164 758.164 14 14"><defs><style>.a{fill:#57a2d5;}</style></defs><path class="a" d="M1.75,6.125A4.333,4.333,0,0,1,6.125,1.75,4.333,4.333,0,0,1,10.5,6.125,4.333,4.333,0,0,1,6.125,10.5,4.333,4.333,0,0,1,1.75,6.125Zm10.763,7.612a.866.866,0,0,0,1.225-1.225L11.025,9.8A5.991,5.991,0,0,0,12.25,6.125,6.087,6.087,0,0,0,6.125,0,6.087,6.087,0,0,0,0,6.125,6.087,6.087,0,0,0,6.125,12.25,5.991,5.991,0,0,0,9.8,11.025Z" transform="translate(3376.164 758.164)"/></svg>