<svg xmlns="http://www.w3.org/2000/svg" xmlns:xlink="http://www.w3.org/1999/xlink" viewBox="15490 10824 768 1024"><defs><style>.a{clip-path:url(#c);}.b{fill:url(#a);}.c,.d,.e,.f,.g,.k,.l,.n{fill:none;}.c,.d,.e,.f,.g,.k,.l{stroke:#fff;}.c,.e,.g{stroke-width:5px;}.c,.d{opacity:0.574;}.d,.f,.k{stroke-width:4px;}.e,.f{opacity:0.391;}.g{opacity:0.677;}.h,.i,.j{fill:#fff;}.i{opacity:0.667;}.j{opacity:0.92;}.k,.l{opacity:0.785;}.l{stroke-width:6px;}.m{stroke:none;}</style><linearGradient id="a" x1="0.142" y1="0.039" x2="1.063" y2="1.075" gradientUnits="objectBoundingBox"><stop offset="0" stop-color="#4095d3"/><stop offset="1" stop-color="#4bc3ef"/></linearGradient><clipPath id="c"><rect x="15490" y="10824" width="768" height="1024"/></clipPath></defs><g id="b" class="a"><rect class="h" x="15490" y="10824" width="768" height="1024"/><rect class="b" width="767.641" height="1029.761" transform="translate(15490.145 10822.361)"/><g class="c" transform="translate(15294.867 10664.813)"><circle class="m" cx="198.66" cy="198.66" r="198.66"/><circle class="n" cx="198.66" cy="198.66" r="196.16"/></g><g class="d" transform="translate(16135.448 10664.813)"><circle class="m" cx="198.66" cy="198.66" r="198.66"/><circle class="n" cx="198.66" cy="198.66" r="196.66"/></g><g class="e" transform="translate(15199.262 10563)"><circle class="m" cx="198.66" cy="198.66" r="198.66"/><circle class="n" cx="198.66" cy="198.66" r="196.16"/></g><g class="f" transform="translate(16039.844 10563)"><circle class="m" cx="198.66" cy="198.66" r="198.66"/><circle class="n" cx="198.66" cy="198.66" r="196.66"/></g><g class="g" transform="translate(16152.418 11682.68)"><circle class="m" cx="198.66" cy="198.66" r="198.66"/><circle class="n" cx="198.66" cy="198.66" r="196.16"/></g><circle class="h" cx="12.002" cy="12.002" r="12.002" transform="translate(16070.057 11151.531)"/><circle class="h" cx="12.002" cy="12.002" r="12.002" transform="translate(15717.435 10906.103)"/><circle class="h" cx="6.001" cy="6.001" r="6.001" transform="translate(15717.435 10948.318)"/><circle class="h" cx="4.001" cy="4.001" r="4.001" transform="translate(16050.435 11763.318)"/><circle class="h" cx="4.001" cy="4.001" r="4.001" transform="translate(15949.435 11452.318)"/><circle class="h" cx="7.657" cy="7.657" r="7.657" transform="translate(15665.7 11000.881)"/><circle class="h" cx="7.657" cy="7.657" r="7.657" transform="translate(15516.291 10985.567)"/><circle class="h" cx="11.795" cy="11.795" r="11.795" transform="translate(15608.171 11648.51)"/><circle class="h" cx="0.828" cy="0.828" r="0.828" transform="translate(15631.762 11672.101)"/><circle class="h" cx="0.828" cy="0.828" r="0.828" transform="translate(15717.435 11779.708)"/><circle class="h" cx="0.828" cy="0.828" r="0.828" transform="translate(15642.522 11668.789)"/><circle class="h" cx="2.483" cy="2.483" r="2.483" transform="translate(15623.898 11688.241)"/><circle class="h" cx="2.483" cy="2.483" r="2.483" transform="translate(15712.468 11768.119)"/><circle class="h" cx="2.483" cy="2.483" r="2.483" transform="translate(16079.575 11201.196)"/><circle class="h" cx="6.816" cy="6.816" r="6.816" transform="translate(16163.609 11687.737)"/><circle class="h" cx="2.483" cy="2.483" r="2.483" transform="translate(15596.583 11701.485)"/><circle class="h" cx="2.483" cy="2.483" r="2.483" transform="translate(16169.387 11094.002)"/><circle class="h" cx="1.242" cy="1.242" r="1.242" transform="translate(15601.549 11742.459)"/><circle class="h" cx="1.242" cy="1.242" r="1.242" transform="translate(16103.58 11141.598)"/><circle class="h" cx="1.242" cy="1.242" r="1.242" transform="translate(16174.767 11646.411)"/><circle class="h" cx="1.449" cy="1.449" r="1.449" transform="translate(15755.925 10890.789)"/><circle class="h" cx="1.449" cy="1.449" r="1.449" transform="translate(16070.925 11761.789)"/><circle class="h" cx="1.449" cy="1.449" r="1.449" transform="translate(15957.925 11467.789)"/><circle class="h" cx="1.449" cy="1.449" r="1.449" transform="translate(15487.925 11380.789)"/><circle class="h" cx="1.449" cy="1.449" r="1.449" transform="translate(15729.437 10884.581)"/><circle class="h" cx="1.449" cy="1.449" r="1.449" transform="translate(16027.437 11715.581)"/><circle class="h" cx="1.449" cy="1.449" r="1.449" transform="translate(15976.437 11449.581)"/><circle class="i" cx="1.449" cy="1.449" r="1.449" transform="translate(15793.174 10930.107)"/><circle class="i" cx="1.449" cy="1.449" r="1.449" transform="translate(16059.174 11720.107)"/><circle class="i" cx="1.449" cy="1.449" r="1.449" transform="translate(15963.174 11504.107)"/><circle class="i" cx="1.449" cy="1.449" r="1.449" transform="translate(15525.174 11420.107)"/><circle class="i" cx="1.449" cy="1.449" r="1.449" transform="translate(15540.296 10976.462)"/><circle class="i" cx="0.621" cy="0.621" r="0.621" transform="translate(15821.317 10913.553)"/><circle class="i" cx="0.621" cy="0.621" r="0.621" transform="translate(16069.317 11678.553)"/><circle class="i" cx="0.621" cy="0.621" r="0.621" transform="translate(15979.317 11470.553)"/><circle class="i" cx="0.621" cy="0.621" r="0.621" transform="translate(15553.317 11403.553)"/><circle class="i" cx="0.621" cy="0.621" r="0.621" transform="translate(16104.822 11114.696)"/><circle class="i" cx="3.976" cy="3.976" r="3.976" transform="translate(16173.834 11671.833)"/><circle class="i" cx="1.704" cy="1.704" r="1.704" transform="translate(16168.152 11663.881)"/><circle class="j" cx="5.38" cy="5.38" r="5.38" transform="translate(16090.75 11127.94)"/><path class="k" d="M-11271.2-10557.088s64.76,94.139,149.143,116.924,123.273,26.374,152.969,64.73,57.363,96.371,72.27,132.256" transform="translate(27236.465 21284.773)"/><path class="l" d="M-11271.2-10557.088s64.76,94.139,149.143,116.924,123.273,26.374,152.969,64.73,57.363,96.371,72.27,132.256" transform="translate(26733.191 22274.082)"/></g></svg>